<?xml version="1.0" encoding="utf-8"?><svg xmlns="http://www.w3.org/2000/svg" xmlns:xlink="http://www.w3.org/1999/xlink"><symbol viewBox="0 0 25 24" id="Telegram" xmlns="http://www.w3.org/2000/svg"><path d="M24.34.45a1.77 1.77 0 0 0-1.872-.308L1.138 9.235c-.938.408-1.385 1.541-1 2.532.2.512.598.91 1.093 1.093l4.602 1.689 2.494 8.706c.005.018.02.028.026.045.026.07.064.134.112.189a.572.572 0 0 0 .27.18c.011.004.019.015.031.018h.007l.003.001a.503.503 0 0 0 .278-.015c.01-.003.02-.002.029-.005a.587.587 0 0 0 .228-.155c.007-.008.019-.01.026-.018l3.588-4.18 5.233 4.28c.319.262.71.405 1.114.405.873 0 1.627-.646 1.807-1.548l3.884-20.135A1.988 1.988 0 0 0 24.34.45ZM9.629 16.2l-.842 4.32L7.03 14.39 15.739 9.6 9.79 15.882a.638.638 0 0 0-.161.318Zm10.284 6a.67.67 0 0 1-.413.5.598.598 0 0 1-.611-.098l-5.671-4.637a.572.572 0 0 0-.805.075l-2.495 2.907.84-4.309 8.559-9.037a.653.653 0 0 0 0-.888.572.572 0 0 0-.696-.114L6.284 13.383 1.62 11.672a.658.658 0 0 1-.43-.62.672.672 0 0 1 .397-.652l21.327-9.092c.222-.1.48-.058.663.108a.678.678 0 0 1 .218.651L19.913 22.2Z"/></symbol><symbol viewBox="0 0 24 25" id="WhatsApp" xmlns="http://www.w3.org/2000/svg"><path d="M17.602 15.012c-.24-.124-1.808-.873-2.05-.998-.24-.125-.481-.125-.723.125-.24.25-.723.998-.964 1.248-.12.25-.362.25-.603.125-.844-.375-1.688-.874-2.411-1.498a14.28 14.28 0 0 1-1.688-2.123c-.12-.25 0-.499.12-.624.121-.125.242-.374.483-.5.12-.124.24-.374.24-.499.121-.124.121-.374 0-.499-.12-.125-.723-1.623-.964-2.247-.12-.874-.361-.874-.602-.874h-.603c-.241 0-.603.25-.724.374-.723.75-1.085 1.623-1.085 2.622.12 1.124.483 2.247 1.206 3.246 1.326 1.998 3.014 3.62 5.064 4.62.602.25 1.085.499 1.688.624.602.25 1.205.25 1.929.124.844-.124 1.567-.749 2.05-1.498.24-.5.24-.999.12-1.498l-.483-.25Zm3.015-11.36c-4.702-4.87-12.298-4.87-17 0-3.858 3.995-4.582 10.112-1.93 14.981L0 25l6.39-1.748c1.808.999 3.737 1.498 5.667 1.498 6.63 0 11.935-5.493 11.935-12.36.121-3.245-1.205-6.366-3.375-8.738ZM17.36 21.13c-1.567.999-3.376 1.623-5.305 1.623-1.808 0-3.496-.5-5.063-1.373l-.362-.25-3.737.999.964-3.746-.241-.374C.723 13.015 2.17 6.773 6.872 3.652 11.574.53 17.602 2.154 20.496 6.898c2.894 4.869 1.567 11.236-3.135 14.232Z"/></symbol><symbol viewBox="0 0 25 23" id="advantages--hand" xmlns="http://www.w3.org/2000/svg"><path d="M11.949 10.873a.756.756 0 0 0 1.107 0l4.726-4.956c1.372-1.441 1.294-3.828-.243-5.157-1.337-1.158-3.329-.95-4.553.335l-.486.508-.482-.504C10.794-.19 8.802-.398 7.465.76 5.933 2.09 5.851 4.476 7.222 5.917l4.727 4.956Zm12.587 3.368c-.513-.464-1.311-.434-1.85 0l-4.01 3.208a2.763 2.763 0 0 1-1.736.607h-5.134a.697.697 0 0 1-.695-.694c0-.382.313-.694.695-.694h3.398c.69 0 1.332-.473 1.445-1.155a1.39 1.39 0 0 0-1.371-1.623H8.333a5.109 5.109 0 0 0-3.216 1.141L3.1 16.668H.694a.696.696 0 0 0-.694.694v4.167c0 .382.313.694.694.694h15.487c.629 0 1.24-.212 1.736-.607l6.562-5.252c.66-.525.712-1.532.057-2.123Z"/></symbol><symbol viewBox="0 0 31 31" id="diagnostics--record" xmlns="http://www.w3.org/2000/svg"><path d="M4.204 20.18a.84.84 0 0 1 .84-.841h11.772a.84.84 0 1 1 0 1.681H5.045a.84.84 0 0 1-.84-.84ZM5.045 23.543a.84.84 0 1 0 0 1.682h11.771a.84.84 0 1 0 0-1.682H5.045ZM6.727 12.612V10.09h1.681v2.522h2.523v1.682H8.408v2.522H6.727v-2.522H4.204v-1.682h2.523Z"/><path fill-rule="evenodd" clip-rule="evenodd" d="M7.567 0a2.522 2.522 0 0 0-2.522 2.522H2.522A2.522 2.522 0 0 0 0 5.045v22.702a2.522 2.522 0 0 0 2.522 2.523H19.34a2.522 2.522 0 0 0 2.522-2.523V5.045a2.522 2.522 0 0 0-2.522-2.523h-2.523A2.522 2.522 0 0 0 14.294 0H7.567Zm6.727 5.045a.84.84 0 0 0 .84-.84V2.521a.84.84 0 0 0-.84-.84H7.567a.84.84 0 0 0-.84.84v1.682c0 .464.376.84.84.84h6.727Zm-9.25-.84a2.522 2.522 0 0 0 2.523 2.522h6.727a2.522 2.522 0 0 0 2.522-2.523h2.523a.84.84 0 0 1 .84.84v22.703a.84.84 0 0 1-.84.84H2.522a.84.84 0 0 1-.84-.84V5.045a.84.84 0 0 1 .84-.84h2.523ZM25.225 9.249a2.522 2.522 0 1 1 5.045 0V26.32l-2.523 3.784-2.522-3.784V9.249Zm2.522-.84a.84.84 0 0 0-.84.84v1.682h1.681V9.249a.84.84 0 0 0-.84-.84Zm0 18.663.841-1.261V12.612h-1.682v13.199l.841 1.261Z"/></symbol><symbol viewBox="0 0 26 28" id="instagram" xmlns="http://www.w3.org/2000/svg"><path d="M13.003 6.821c-3.69 0-6.665 3.205-6.665 7.179s2.976 7.179 6.665 7.179 6.665-3.205 6.665-7.179-2.976-7.179-6.665-7.179Zm0 11.846c-2.384 0-4.333-2.093-4.333-4.667s1.943-4.667 4.333-4.667 4.333 2.093 4.333 4.667-1.95 4.667-4.333 4.667Zm8.492-12.14c0 .931-.696 1.675-1.555 1.675-.864 0-1.554-.75-1.554-1.675 0-.924.696-1.674 1.554-1.674.859 0 1.555.75 1.555 1.675Zm4.414 1.7c-.099-2.243-.575-4.23-2.1-5.867C22.289.723 20.445.21 18.362.098c-2.146-.13-8.578-.13-10.724 0C5.56.205 3.717.717 2.19 2.354.666 3.99.196 5.978.091 8.22c-.121 2.311-.121 9.24 0 11.552.099 2.243.575 4.23 2.1 5.867 1.526 1.637 3.364 2.15 5.447 2.262 2.146.13 8.578.13 10.724 0 2.083-.107 3.927-.619 5.447-2.262 1.52-1.637 1.995-3.624 2.1-5.867.122-2.312.122-9.234 0-11.546Zm-2.773 14.026c-.452 1.225-1.328 2.169-2.47 2.662-1.712.731-5.772.562-7.663.562s-5.957.163-7.662-.562c-1.137-.487-2.013-1.43-2.471-2.662-.679-1.843-.522-6.216-.522-8.253s-.151-6.417.522-8.253c.452-1.225 1.328-2.169 2.47-2.662 1.712-.731 5.772-.562 7.663-.562 1.89 0 5.957-.163 7.662.562 1.137.487 2.013 1.43 2.471 2.662.679 1.843.522 6.216.522 8.253s.157 6.417-.522 8.253Z"/></symbol><symbol id="logo" viewBox="0 0 1932.7 634.46" xmlns="http://www.w3.org/2000/svg"><defs><style>.dcls-1{stroke-width:0}</style></defs><g id="d_Слой_1-2" data-name="Слой 1"><path class="dcls-1" d="M775.95 582.67V381.86c0-2.66-.09-5.33.03-7.99.37-7.85 2.42-10.04 10.24-10.19 9.66-.19 19.33-.19 28.98 0 8.46.16 10.65 2.44 10.98 10.62.08 1.99.02 4 .02 5.99.04 77.25.08 154.5.13 231.75 0 2.66.07 5.33-.02 7.99-.27 8.23-1.82 9.86-9.91 10.39-2.32.15-4.66.06-6.99.06H546.53c-16.6 0-16.87-.27-16.87-16.66V380.07c0-16.09.35-16.42 16.07-16.44 8 0 16-.16 23.99.06 7.71.21 9.94 2.59 10.31 10.27.13 2.66.03 5.33.03 7.99V581.58c7.39 2.29 47.86 3 72.07 1.26.11-3.66.31-7.49.31-11.31.02-63.6.01-127.2.02-190.79 0-2.66-.14-5.34.07-7.99.54-6.51 2.78-8.88 9.42-9.04 10.32-.24 20.66-.24 30.98 0 7.25.17 9.4 2.49 9.87 9.63.17 2.65.05 5.33.05 7.99V582.68h73.08ZM1628.8 479.48c2.64 2.19 4.37 3.72 6.2 5.12 38.18 29.14 39.43 95.2-.52 128.06-13.85 11.39-29.74 17.64-47.69 17.73-39.95.2-79.89.14-119.84.04-10.26-.03-11.8-1.76-11.81-12.59-.05-61.21-.03-122.43-.03-183.64 0-19.3-.07-38.59.03-57.89.06-11.1 1.67-12.65 12.79-12.66 35.95-.05 71.9-.12 107.86.03 17.46.08 33.38 5.19 47.41 15.83 28.64 21.73 35.37 66.92 10.61 93.93-1.54 1.68-2.92 3.51-5 6.04Zm-123.63 24.03v85.26c2.38.24 4.29.59 6.21.6 21.94.03 43.89.22 65.83-.06 20.59-.26 35.96-13.72 38.67-33.21 3.33-23.99-7.62-44.45-27.35-50.63-3.74-1.17-7.79-1.68-11.73-1.86-6.64-.3-13.29-.09-19.94-.09h-51.68Zm.12-38.24c22.2 0 43.76.26 65.29-.21 4.74-.1 9.81-2.11 14.07-4.45 11.44-6.27 15.71-16.77 14.7-29.32-.95-11.88-7.92-19.67-19.04-23.04-6.58-1.99-13.65-3.05-20.53-3.25-16.26-.47-32.55-.21-48.83-.14-1.85 0-3.7.65-5.66 1.03v59.37ZM1270.46 634.46c-75.78.17-137.53-61.18-137.76-136.88-.24-75.7 61.26-137.72 136.78-137.94 76.28-.22 138.23 61.36 138.28 137.46.05 75.66-61.46 137.2-137.3 137.37Zm87.74-136.6c.21-50.05-38.37-89.96-87.23-90.24-49.14-.28-88.53 39.05-88.85 88.7-.32 50.44 38.6 90.14 88.3 90.07 48.79-.07 87.57-39.18 87.78-88.52ZM157.82 411.44H50.85V612.04c0 2.66.07 5.33-.03 7.99-.3 8.04-2.04 10.1-10.02 10.34-9.98.3-19.98.25-29.97.04C1.74 630.22.14 628.42.06 618.9c-.11-12.31-.03-24.63-.03-36.94V378.28c0-2.99.02-5.99.13-8.98.15-3.98 2.38-6.07 6.27-6.35 2.32-.17 4.66-.18 6.99-.18 60.28 0 120.55-.02 180.83 0 13.86 0 14.3.48 14.3 14.84v237.63c0 1.33.03 2.66 0 3.99-.25 9.28-1.8 10.99-11.2 11.19-9.32.2-18.65.18-27.97 0-9.76-.19-11.49-1.94-11.52-11.91-.09-27.96-.03-55.91-.04-83.87V411.43ZM932.69 477.97c6.21-2.7 11.04-3.65 14.3-6.44 7.26-6.22 14.62-12.7 20.34-20.28 9.62-12.72 17.67-26.62 27.01-39.57 6.6-9.15 13.65-18.12 21.53-26.15 15.47-15.76 34.92-22.63 56.86-22.71 8.43-.03 9.78 1.22 9.93 9.8.16 8.65.21 17.31-.03 25.96-.22 7.67-1.62 8.32-9.16 10.56-6.25 1.86-12.82 4.12-17.92 7.98-7.09 5.36-13.76 11.73-19.14 18.79-13.08 17.16-25.32 34.97-38.16 52.88 38.66 46.4 77.18 92.62 116.92 140.32-4.51.7-6.93 1.39-9.35 1.4-14.32.08-28.65-.33-42.96.1-7.41.22-12.55-2.39-17.14-8.04-23.74-29.19-47.7-58.19-71.59-87.25-3.36-4.09-6.75-8.16-9.91-11.98-10.39 3.14-20.14 6.09-31.53 9.53v9.53c0 24.97.04 49.93-.02 74.9-.03 11.93-1.18 13.04-13.19 13.15-8.99.08-17.99.21-26.98-.06-8.14-.24-9.86-2.15-10.18-10.18-.13-3.32-.03-6.66-.03-9.99V382.53c0-2.66-.07-5.33.02-7.99.3-8.59 2.16-10.62 10.57-10.95 9.32-.37 18.64-.62 27.97-.69 9.74-.08 11.75 1.82 11.79 11.62.11 27.96.04 55.92.05 83.88v19.56ZM427.54 597.73H308.23c-2.92 7.43-6.1 14.73-8.65 22.24-2.48 7.29-6.94 10.81-14.8 10.57-10.32-.31-20.66.14-30.98-.19-7.7-.25-9.41-3.02-7.11-10.28.7-2.21 1.76-4.31 2.68-6.45 35.28-82.25 70.55-164.5 105.85-246.74 1.57-3.67 3.13-7.38 5.13-10.82 3.99-6.85 10.44-7.01 14.92-.32 2.02 3.01 3.54 6.41 4.97 9.76 35.78 83.48 71.52 166.98 107.27 250.48.13.31.28.6.41.91 4.52 11.05 2.93 13.44-9.27 13.56-9.66.1-19.32-.07-28.98.03-6.48.07-10.62-2.73-12.85-8.9-2.82-7.81-6.01-15.49-9.28-23.85Zm-103.66-41.91h88.15c-14.66-37.64-28.91-74.21-43.94-112.8-15.12 38.57-29.44 75.11-44.21 112.8ZM1869.78 597.7h-119.04c-3.02 7.61-6.33 15.17-9.02 22.94-2.42 6.99-6.9 10.06-14.24 9.88-9.65-.23-19.31.07-28.96-.08-10.86-.17-12.67-2.78-8.49-12.66 11.25-26.64 22.64-53.22 34.05-79.8 24.52-57.12 49.09-114.22 73.65-171.32 1.31-3.05 2.74-6.06 4.16-9.06 1.61-3.42 3.56-6.43 7.93-6.61 4.8-.2 7.14 2.95 9.05 6.61 1.39 2.65 2.7 5.34 3.88 8.09 35.72 83.42 71.43 166.84 107.1 250.29 5.29 12.37 3.86 14.42-9.68 14.5-8.99.05-17.98-.17-26.96.06-7.27.18-11.83-2.63-14.24-9.77-2.63-7.82-6.08-15.36-9.19-23.05Zm-59.25-154.66c-13.86 35.24-27.11 68.89-40.31 102.57-1.08 2.77-1.84 5.66-2.71 8.51-.07.24.17.59.32.86.16.29.39.54.59.8 16.43 2.01 78.5 1.19 85.49-1.31-14.21-36.5-28.42-72.99-43.39-111.43ZM231.81 222.91c6.68 0 12.56-.08 18.45.02 10.43.17 11.74 1.32 11.77 11.34.09 29.62.08 59.24 0 88.86-.03 9.99-.62 10.45-11.01 10.52-8.32.06-16.65.05-24.98 0-10.69-.07-10.95-.32-11-11.43-.06-13.31-.01-26.62-.01-39.94v-9.51c-8.1-2.16-156.14-2.7-168.91-.75-.18 2.71-.53 5.6-.54 8.49-.06 14.64.06 29.29-.07 43.93-.08 8.27-.92 9.06-9.27 9.18-8.99.14-17.98.14-26.97 0-7.82-.12-9.12-1.11-9.16-8.37-.14-30.95-.15-61.9 0-92.85.04-7.89 1.58-9.06 9.51-9.47 1-.05 2.03-.18 2.99 0 12.7 2.31 19.36-3.44 25.22-14.79 17.9-34.65 27.39-71.35 29.55-109.96 1.48-26.56 1.55-53.2 2.24-79.81.07-2.66-.02-5.33.13-7.98.22-3.89 2.26-6.14 6.27-6.31 2-.08 4-.07 5.99-.07h136.86c2 0 4-.04 5.99.07 4.3.24 6.8 2.36 6.87 6.86.04 2.66.07 5.32.07 7.99v203.99Zm-51.38-.7c2.1-14.58 1.37-162.99-.68-169.6h-62.52c0 4.22.04 7.82 0 11.42-.75 52.74-8.34 104.1-30.7 152.5-.74 1.61-.81 3.53-1.28 5.68h95.18ZM404.69 274.83c-76.07-.86-137.28-62.78-136.53-138.11C268.93 59.85 331.05-.81 408.17 0c75.5.8 136.09 63.92 135.04 140.68-1.01 74.09-63.89 134.98-138.52 134.14Zm88.97-137.25c0-49.89-38.91-89.56-87.88-89.59-49-.03-88.11 39.58-88.2 89.35-.09 49.92 38.56 89.22 87.95 89.42 49.1.2 88.13-39.29 88.13-89.17ZM1175.53 274.83c-75.81.11-137.51-61.27-137.69-136.96C1037.67 62.14 1099.15.21 1174.7 0c76.26-.2 138.18 61.42 138.2 137.53.03 75.64-61.56 137.18-137.37 137.29Zm87.82-136.96c.1-49.96-38.67-89.74-87.59-89.88-49.06-.14-88.3 39.36-88.49 89.06-.19 49.99 38.21 89.28 87.66 89.7 49.03.42 88.32-39.07 88.41-88.88ZM705.57 129.28c38.62 46.36 77.13 92.57 116.87 140.26-4.6.67-7.05 1.32-9.51 1.34-14.32.1-28.66-.28-42.96.18-7.46.24-12.52-2.6-17.08-8.2-23.75-29.17-47.71-58.18-71.6-87.25-3.36-4.09-6.75-8.15-9.85-11.89-10.47 3.15-20.23 6.1-31.53 9.5v9.64c0 24.97.04 49.93-.02 74.9-.03 11.76-1.33 13.01-13.28 13.13-8.99.09-17.99.23-26.98-.08-8.05-.28-9.86-2.28-10.07-10.32-.18-6.99-.05-13.98-.05-20.97V21.81c0-2.66-.11-5.33.04-7.99.42-7.29 2.42-9.5 9.64-9.83 9.65-.44 19.31-.66 28.97-.73 9.7-.08 11.67 1.82 11.7 11.71.11 29.29.04 58.59.05 87.88v12.84c5.86 1.86 9.79-.89 13.66-3.18 8.76-5.18 15.52-12.54 21.2-20.85 9.01-13.19 17.5-26.75 26.84-39.7 6.6-9.14 13.66-18.11 21.55-26.14 15.48-15.75 34.95-22.59 56.89-22.64 8.14-.02 9.62 1.2 9.81 8.9.22 8.98.23 17.98-.01 26.96-.2 7.37-1.47 9.2-8.33 10.07-9.07 1.16-16.57 5.33-22.83 11.39-7.14 6.92-14.06 14.23-20.03 22.16-11.19 14.89-21.62 30.35-33.1 46.61ZM1409.03 221.49c0 13.15.06 25.08-.02 37.01-.07 10.55-1.62 12.2-12.03 12.39-9.32.17-18.65.26-27.95-.08-7.45-.27-9.21-2.35-9.63-9.78-.13-2.32-.04-4.66-.04-6.98V21.54c0-2.66-.14-5.33.07-7.98.55-7.12 2.73-9.52 9.99-9.48 28.95.15 57.99-.76 86.83 1.19 44.53 3.01 76.16 26.39 93.41 67.35 27.76 65.91-20.26 142.54-91.57 147.12-12.94.83-25.93.85-38.9 1.26-2.94.09-5.88.28-10.15.49Zm1.28-176.16c-2.1 13.62-1.64 124.78.4 132.47 11.45 0 23.08.13 34.7-.03 32.95-.45 60.3-25.34 63.48-57.62 3.46-35.15-18.06-66.5-51.46-72.35-15.23-2.67-31.08-1.75-47.12-2.48ZM958.84 49.17V252.91c0 2.99.18 6.01-.14 8.98-.63 5.84-2.94 8.56-8.88 8.79-10.63.41-21.31.43-31.94 0-5.99-.24-8.14-2.97-8.64-8.89-.22-2.64-.07-5.32-.07-7.98V49.77c-4.27-.23-7.49-.55-10.72-.56-15.65-.05-31.29-.02-46.94-.03-17.81-.01-18.17-.39-18.18-18.63 0-4.66-.05-9.32.01-13.97.14-10.83 1.81-12.44 13-12.55 3.99-.04 7.99 0 11.98 0h157.8c2.66 0 5.34-.15 7.99.07 6.63.54 8.98 2.7 9.2 9.28.28 8.31.27 16.64.03 24.95-.23 8.07-2.71 10.58-11.05 10.77-11.98.28-23.97.09-35.95.1h-27.48Z"/></g></symbol><symbol viewBox="0 0 24 23" id="primary--Exam" xmlns="http://www.w3.org/2000/svg"><path fill-rule="evenodd" clip-rule="evenodd" d="M3.1 21.85h13.8a1.15 1.15 0 0 0 1.15-1.15V2.3a1.15 1.15 0 0 0-1.15-1.15H3.1A1.15 1.15 0 0 0 1.95 2.3v18.4c0 .635.515 1.15 1.15 1.15ZM16.9 23H3.1a2.3 2.3 0 0 1-2.3-2.3V2.3A2.3 2.3 0 0 1 3.1 0h13.8a2.3 2.3 0 0 1 2.3 2.3v18.4a2.3 2.3 0 0 1-2.3 2.3Z"/><path fill-rule="evenodd" clip-rule="evenodd" d="M8.85 5.175c0-.318.258-.575.575-.575h6.9a.575.575 0 1 1 0 1.15h-6.9a.575.575 0 0 1-.575-.575ZM8.85 7.475c0-.317.258-.575.575-.575h6.9a.575.575 0 1 1 0 1.15h-6.9a.575.575 0 0 1-.575-.575ZM8.85 12.075c0-.318.258-.575.575-.575h6.9a.575.575 0 1 1 0 1.15h-6.9a.575.575 0 0 1-.575-.575ZM8.85 14.375c0-.318.258-.575.575-.575h6.9a.575.575 0 1 1 0 1.15h-6.9a.575.575 0 0 1-.575-.575ZM4.25 12.65v1.725h1.725V12.65H4.25Zm-.575-1.15H6.55c.318 0 .575.257.575.575v2.875a.575.575 0 0 1-.575.575H3.675a.575.575 0 0 1-.575-.575v-2.875c0-.318.258-.575.575-.575ZM7.532 4.768a.575.575 0 0 1 0 .813L4.825 8.288 3.27 6.73a.575.575 0 1 1 .813-.813l.743.743L6.72 4.768a.575.575 0 0 1 .813 0ZM22.65 11.5H21.5v8.816l.575.767.575-.767V11.5Zm1.15 9.2L22.075 23l-1.725-2.3V10.35h3.45V20.7ZM22.65 7.475H21.5v1.15h1.15v-1.15Zm-1.15-1.15h1.15c.635 0 1.15.515 1.15 1.15v2.3h-3.45v-2.3c0-.635.515-1.15 1.15-1.15Z"/></symbol><symbol viewBox="0 0 30 30" id="primary--Hands" xmlns="http://www.w3.org/2000/svg"><path fill-rule="evenodd" clip-rule="evenodd" d="M25.685 6.377 23.747.104l-1.938 6.273-3.75 1.784 3.766 1.793 1.922 5.487 1.921-5.487 3.767-1.793-3.75-1.784Zm-2.5 1.19.562-1.818.561 1.817 1.25.595-1.233.587-.578 1.651-.578-1.65-1.234-.588 1.25-.595Z"/><path d="m10.832 8.34.833-3.331.833 3.33 2.5.834-2.5.832-.833 3.331-.833-3.33-2.5-.833 2.5-.833Z"/><path fill-rule="evenodd" clip-rule="evenodd" d="M5.833 28.117v.206c0 .92-.746 1.665-1.667 1.665h-2.5c-.92 0-1.666-.745-1.666-1.665v-9.157c0-.92.746-1.665 1.666-1.665h2.5c.788 0 1.449.547 1.622 1.281 1.104-.397 2.393-.87 2.787-1.05.335-.152.722-.204 1.043-.223.338-.02.689-.006.995.018a12.032 12.032 0 0 1 1.107.14l.02.003h.005l.003.001.015.003 5.573 1.25.035.01.01.004.038.012.157.045c.138.038.335.09.571.14.48.105 1.083.202 1.645.202.52 0 1.058.194 1.345.72.247.452.19.948.097 1.292a3.62 3.62 0 0 1-.656 1.26c.409-.155.856-.337 1.336-.534l.102-.042c1.353-.555 2.956-1.212 4.37-1.446 1.617-.267 2.793.319 3.326 1.36.475.925.365 2.14-.35 2.873-.179.184-.452.376-.726.554-.293.19-.654.405-1.055.632-.803.455-1.797.979-2.796 1.485-1.976 1.001-4.048 1.976-4.706 2.216-.763.28-1.582.306-2.37.266-.43-.022-.928-.072-1.424-.121-.358-.036-.715-.071-1.042-.096-1.607-.122-2.84-.514-3.975-.875l-.138-.043c-1.173-.373-2.264-.703-3.71-.76-.33-.014-.99.01-1.587.04Zm3.433-8.87c.054-.024.195-.06.448-.075a5.91 5.91 0 0 1 .77.016 10.488 10.488 0 0 1 .944.118h.002l5.472 1.227.038.012.19.055c.163.044.39.104.662.163.488.106 1.14.218 1.807.237a1.994 1.994 0 0 1-.237.452 1.78 1.78 0 0 1-.4.428 2.453 2.453 0 0 1-.796.396c-.086.022-.147.03-.177.033h-.011l-.007.001-4.467-.054-.16 1.652.15-.82-.149.82.044.008.128.023a123.042 123.042 0 0 0 1.967.336c1.146.187 2.526.394 3.31.44.54.034 1.17-.132 1.756-.328.611-.204 1.302-.486 1.996-.771 1.431-.587 2.888-1.184 4.113-1.386 1.058-.175 1.435.212 1.57.476.194.378.089.799-.06.951a3.274 3.274 0 0 1-.44.32c-.255.165-.584.361-.97.58-.772.438-1.74.948-2.727 1.448-1.993 1.01-3.977 1.937-4.526 2.139-.445.163-.995.202-1.712.165a24.781 24.781 0 0 1-1.262-.107 44.304 44.304 0 0 0-1.163-.107c-1.41-.107-2.482-.447-3.63-.812l-.105-.033c-1.19-.377-2.462-.77-4.147-.837-.379-.015-1.054.008-1.654.037v-5.914c1.17-.419 2.905-1.048 3.433-1.288Zm2.33-.757.152-.819-.153.819Zm-7.43.676h-2.5v9.157h2.5v-9.157Z"/></symbol><symbol viewBox="0 0 25 32" id="primary--Location" xmlns="http://www.w3.org/2000/svg"><path fill-rule="evenodd" clip-rule="evenodd" d="m11.825 31.553.508-.72-.508.72Zm1.016 0 .003-.002.008-.006.028-.02.103-.075c.09-.065.217-.16.38-.285.323-.25.783-.614 1.332-1.084a38.235 38.235 0 0 0 4.03-4c2.915-3.37 5.941-8.18 5.941-13.68 0-3.287-1.298-6.44-3.61-8.767A12.3 12.3 0 0 0 12.333 0 12.3 12.3 0 0 0 3.61 3.634 12.436 12.436 0 0 0 0 12.401c0 5.5 3.027 10.31 5.94 13.68a38.235 38.235 0 0 0 4.031 4 33.433 33.433 0 0 0 1.712 1.37l.103.074.028.02.008.006.004.002a.883.883 0 0 0 1.015 0Zm-.508-.72.508.72-.508-.72Zm4.405-18.5a4.405 4.405 0 1 1-8.81 0 4.405 4.405 0 0 1 8.81 0Z"/></symbol><symbol viewBox="0 0 29 29" id="primary--Male" xmlns="http://www.w3.org/2000/svg"><path d="M20.162 8.789s.421 4.275.782 4.034c1.209-.805 1.478-2.898 1.478-5.791 0-5.435-6.879-6.663-9.258-6.98-3.9-.52-3.65 3.062-3.955 3.162-4.954 4.016-1.153 9.61-1.153 9.61s.675-6.746 3.24-6.595c4.824 3.213 8.866 2.56 8.866 2.56Z"/><path fill-rule="evenodd" clip-rule="evenodd" d="M6.793 22.04a2.417 2.417 0 1 0 1.578-.335 7.163 7.163 0 0 1-.082-.327 15.804 15.804 0 0 1-.257-1.506 13.71 13.71 0 0 1-.114-1.541 5.274 5.274 0 0 1 .012-.425c.31-.089.621-.169.931-.24.356-.08.566.34.736.68l.07.135h9.464c.184-.35.603-.907 1.008-.815.432.099.866.216 1.296.35h-.003v.002c.004.011.022.064.04.178.02.13.033.299.04.502.01.407-.012.9-.06 1.398-.049.497-.12.978-.2 1.358-.018.084-.036.16-.054.23h-1.06a.806.806 0 0 0-.72.445l-.805 1.611a.805.805 0 0 0-.085.36v1.612c0 .445.36.805.805.805h1.611v-1.61h-.805v-.616l.498-.996h2.226l.498.996v.615h-.805v1.611h1.61c.446 0 .806-.36.806-.805V24.1a.805.805 0 0 0-.085-.36l-.805-1.612a.806.806 0 0 0-.72-.445h-.513c.086-.43.158-.93.206-1.433.053-.543.08-1.106.067-1.598l-.001-.022C26.333 19.988 29 22.221 29 24.56v4.374H0V24.56c0-2.443 2.908-4.77 6.308-6.104.01.5.057 1.068.125 1.616.074.592.175 1.181.286 1.666.024.104.048.205.074.302Zm1.263 2.878a.812.812 0 0 0 .805-.817.812.812 0 0 0-.805-.818.812.812 0 0 0-.806.818c0 .462.372.817.806.817Z"/><mask id="ja" maskUnits="userSpaceOnUse" x="0" y="17" width="29" height="12"><path fill-rule="evenodd" clip-rule="evenodd" d="M6.793 22.04a2.417 2.417 0 1 0 1.578-.335 7.163 7.163 0 0 1-.082-.327 15.804 15.804 0 0 1-.257-1.506 13.71 13.71 0 0 1-.114-1.541 5.274 5.274 0 0 1 .012-.425c.31-.089.621-.169.931-.24.356-.08.566.34.736.68l.07.135h9.464c.184-.35.603-.907 1.008-.815.432.099.866.216 1.296.35h-.003v.002c.004.011.022.064.04.178.02.13.033.299.04.502.01.407-.012.9-.06 1.398-.049.497-.12.978-.2 1.358-.018.084-.036.16-.054.23h-1.06a.806.806 0 0 0-.72.445l-.805 1.611a.805.805 0 0 0-.085.36v1.612c0 .445.36.805.805.805h1.611v-1.61h-.805v-.616l.498-.996h2.226l.498.996v.615h-.805v1.611h1.61c.446 0 .806-.36.806-.805V24.1a.805.805 0 0 0-.085-.36l-.805-1.612a.806.806 0 0 0-.72-.445h-.513c.086-.43.158-.93.206-1.433.053-.543.08-1.106.067-1.598l-.001-.022C26.333 19.988 29 22.221 29 24.56v4.374H0V24.56c0-2.443 2.908-4.77 6.308-6.104.01.5.057 1.068.125 1.616.074.592.175 1.181.286 1.666.024.104.048.205.074.302Zm1.263 2.878a.812.812 0 0 0 .805-.817.812.812 0 0 0-.805-.818.812.812 0 0 0-.806.818c0 .462.372.817.806.817Z"/></mask><g mask="url(#ja)"><path d="m6.793 22.04.843 1.373 1.02-.627-.305-1.158-1.558.412Zm1.578-.335-1.552.433.287 1.026 1.057.138.208-1.598Zm-.44-3.799-.445-1.548-1.078.309-.084 1.118 1.606.121Zm1.736.575-1.426.75.453.861h.973v-1.611Zm9.464 0v1.611h.973l.453-.86-1.426-.751Zm2.304-.466.72 1.441 3.585-1.792-3.828-1.188-.477 1.54Zm-.003.002-1.44.721.721 1.44 1.44-.72-.72-1.441Zm0 0 1.57-.362-.018-.077-.025-.074-1.527.514Zm0 0-1.57.364.019.077.025.075 1.526-.515Zm0 0 1.527-.513v-.002l-1.527.516Zm-.234 3.667v1.611h1.255l.307-1.216-1.562-.395Zm-.253 4.833v1.612h1.61v-1.612h-1.61Zm0-1.61h1.61v-1.612h-1.61v1.611Zm-.806 0h-1.611v1.61h1.61v-1.61Zm0-.616-1.441-.72-.17.34v.38h1.61Zm.498-.996v-1.61h-.996l-.445.89 1.44.72Zm2.226 0 1.441-.72-.445-.89h-.996v1.61Zm.498.996h1.611v-.38l-.17-.34-1.44.72Zm0 .615v1.611h1.611v-1.61h-1.61Zm-.805 0v-1.61h-1.611v1.61h1.61Zm0 1.611h-1.611v1.612h1.61v-1.612Zm.293-4.833-1.58-.317-.386 1.928h1.966v-1.61Zm.273-3.03 1.61-.046v-.002l-1.61.047Zm-.001-.023.627-1.484-2.311-.976.074 2.508 1.61-.048ZM29 28.934v1.611h1.611v-1.61H29Zm-29 0h-1.611v1.611H0v-1.61Zm6.308-10.478 1.611-.03-.042-2.316-2.157.847.588 1.5Zm.942 5.645c0-.289.15-.544.386-.688L5.95 20.667A4.026 4.026 0 0 0 4.028 24.1H7.25Zm.806.805a.806.806 0 0 1-.806-.805H4.028a4.028 4.028 0 0 0 4.028 4.028v-3.223Zm.805-.805c0 .445-.36.805-.805.805v3.223a4.028 4.028 0 0 0 4.027-4.028H8.861Zm-.698-.799c.393.052.698.39.698.799h3.222a4.028 4.028 0 0 0-3.503-3.994l-.417 3.195Zm1.76-2.03a5.693 5.693 0 0 1-.063-.253l-3.141.719c.032.143.066.277.1.4l3.104-.867Zm-.063-.253a14.216 14.216 0 0 1-.23-1.346l-3.197.4c.074.59.175 1.18.286 1.665l3.14-.72Zm-.23-1.346c-.063-.51-.099-.99-.1-1.352l-3.223.02a15.3 15.3 0 0 0 .126 1.731l3.198-.399Zm-.1-1.352c-.002-.13.002-.228.007-.294l-3.213-.242c-.013.173-.018.36-.017.556l3.222-.02Zm-1.027-2.225c-.34.077-.68.165-1.017.262l.889 3.097c.282-.081.564-.154.844-.218l-.716-3.141Zm2.535 1.527c-.062-.123-.245-.509-.519-.827-.306-.354-1.006-.93-2.016-.7l.716 3.141c-.27.062-.551.027-.79-.082a1.03 1.03 0 0 1-.35-.255c-.035-.04-.04-.055-.016-.014.023.04.048.09.094.181l2.88-1.444Zm.054.107a7.1 7.1 0 0 1-.054-.107l-2.88 1.444c.021.044.052.105.083.165l2.851-1.502Zm1.848-.86H9.667v3.222h3.273V16.87Zm1.472 0H12.94v3.222h1.471l.001-3.222Zm1.445 0h-1.445v3.222h1.446V16.87Zm3.274 0h-3.274v3.222h3.274V16.87Zm1.366-.774c-1.044-.238-1.799.398-2.062.651a3.97 3.97 0 0 0-.73.983l2.852 1.502a.94.94 0 0 1 .098-.147l.014-.016s-.012.012-.036.03a.772.772 0 0 1-.133.075 1.144 1.144 0 0 1-.719.063l.716-3.141Zm1.415.38a19.143 19.143 0 0 0-1.415-.38l-.716 3.141c.39.09.784.195 1.177.317l.954-3.077Zm.24 2.982.003-.002-1.44-2.882-.003.002 1.44 2.882Zm.807-1.954.005.015.014.046.017.062a1.62 1.62 0 0 1 .046.458c-.001.035-.003.516-.367.956a1.61 1.61 0 0 1-1.925.434c-.293-.137-.467-.33-.499-.364-.106-.114-.171-.22-.179-.232a1.667 1.667 0 0 1-.044-.075l-.028-.051-.007-.015 2.88-1.443-.007-.016-.028-.052a1.6 1.6 0 0 0-.045-.075c-.008-.012-.073-.118-.179-.232-.032-.034-.206-.227-.499-.364a1.61 1.61 0 0 0-1.925.434c-.363.44-.366.921-.367.955-.006.134.007.239.012.28.012.09.03.16.034.179l.017.063.014.046.005.015.001.002v.002l3.054-1.028Zm.105.447a2.638 2.638 0 0 0-.105-.447l-3.054 1.027-.004-.014a1.349 1.349 0 0 1-.019-.064c-.005-.02-.005-.025-.003-.012l3.185-.49Zm.058.702a5.73 5.73 0 0 0-.058-.702l-3.185.49c.007.043.017.141.022.303l3.22-.09Zm-.067 1.598c.053-.543.08-1.106.067-1.598l-3.221.09c.009.322-.01.746-.053 1.198l3.207.31Zm-.227 1.537c.095-.45.175-.993.227-1.537l-3.207-.31c-.044.45-.107.87-.172 1.179l3.152.668Zm-.068.29c.024-.09.046-.188.067-.29l-3.152-.668a4.447 4.447 0 0 1-.039.17l3.124.789Zm-2.621 1.217h1.06v-3.222h-1.06v3.222Zm.72-.445a.805.805 0 0 1-.72.445v-3.222c-.915 0-1.752.517-2.162 1.336l2.882 1.44Zm-.805 1.611.805-1.611-2.882-1.441-.805 1.611 2.882 1.441Zm.085-.36c0 .125-.03.248-.085.36l-2.882-1.441a2.417 2.417 0 0 0-.255 1.08h3.222Zm0 1.61v-1.61h-3.222v1.61h3.222Zm-.806-.805c.445 0 .806.361.806.806h-3.222a2.417 2.417 0 0 0 2.416 2.417v-3.223Zm1.612 0h-1.612v3.223h1.612v-3.223Zm-1.612 0v1.611h3.223v-1.61h-3.223Zm.806 1.611h.806v-3.222h-.806v3.222Zm-1.611-2.226v.615h3.222v-.615h-3.222Zm.668-1.716-.498.995 2.882 1.442.498-.996-2.882-1.441Zm3.667-.89h-2.226v3.221h2.226v-3.222Zm1.94 1.885-.499-.995-2.882 1.44.498.997 2.882-1.442Zm.17 1.336v-.615H21.75v.615h3.222Zm-2.417 1.611h.805v-3.222h-.805v3.222Zm1.61 0v-1.61h-3.221v1.61h3.222Zm0-1.61h-1.61v3.222h1.61v-3.223Zm-.805.805c0-.445.36-.806.806-.806v3.223a2.417 2.417 0 0 0 2.416-2.417h-3.222Zm0-1.611v1.61h3.222v-1.61h-3.222Zm.085.36a.805.805 0 0 1-.085-.36h3.222c0-.375-.087-.745-.255-1.081l-2.882 1.441Zm-.805-1.611.805 1.611 2.882-1.441-.805-1.611-2.882 1.44Zm.72.445a.806.806 0 0 1-.72-.445l2.882-1.441a2.417 2.417 0 0 0-2.162-1.336v3.222Zm-.512 0h.512v-3.222h-.512v3.222Zm-1.397-3.199c-.045.458-.11.905-.183 1.271l3.16.634a16.31 16.31 0 0 0 .23-1.595l-3.207-.31Zm.06-1.398c.01.407-.012.9-.06 1.398l3.207.31c.057-.588.09-1.221.073-1.798l-3.22.09Zm-.001-.02v.023l3.221-.095v-.022l-3.221.095Zm9.1 5.882c0-1.795-1.011-3.33-2.233-4.498-1.246-1.19-2.896-2.183-4.63-2.915l-1.254 2.968c1.479.625 2.767 1.427 3.658 2.277.915.873 1.237 1.623 1.237 2.168h3.222Zm0 4.374V24.56H27.39v4.374h3.222ZM0 30.545h29v-3.222H0v3.222Zm-1.611-5.985v4.374H1.61V24.56H-1.61Zm7.33-7.603c-1.833.72-3.594 1.727-4.927 2.947-1.304 1.192-2.403 2.784-2.403 4.656H1.61c0-.57.355-1.364 1.355-2.279.971-.888 2.364-1.71 3.931-2.325l-1.177-3Zm-1.021 1.529c.01.573.063 1.198.137 1.785l3.197-.399a14.183 14.183 0 0 1-.113-1.445l-3.221.059Zm.137 1.785c.079.635.188 1.279.313 1.827l3.141-.72a15.804 15.804 0 0 1-.257-1.506l-3.197.4Zm.313 1.827c.028.118.056.237.087.353l3.116-.823c-.02-.077-.041-.16-.062-.25l-3.14.72ZM7.25 24.1a.8.8 0 0 1 .806-.794v3.222a2.423 2.423 0 0 0 2.416-2.428H7.25Zm.806.794a.8.8 0 0 1-.806-.794h3.222c0-1.36-1.1-2.429-2.416-2.429v3.223Zm.805-.794a.8.8 0 0 1-.805.794v-3.223a2.423 2.423 0 0 0-2.417 2.429H8.86Zm-.805-.794a.8.8 0 0 1 .805.794H5.64c0 1.359 1.1 2.428 2.417 2.428v-3.222Z"/></g></symbol><symbol viewBox="0 0 31 30" id="primary--Trophy" xmlns="http://www.w3.org/2000/svg"><path fill-rule="evenodd" clip-rule="evenodd" d="M5.076.95c0-.445.379-.805.846-.805h18.613c.467 0 .846.36.846.805v.806h4.23c.467 0 .846.36.846.805v4.834c0 2.224-1.894 4.027-4.23 4.027h-1.424c-1.304 3.513-4.68 6.094-8.729 6.412V22.7h5.922c.468 0 .847.36.847.806v4.833c0 .445-.38.806-.847.806H8.46c-.467 0-.846-.361-.846-.806v-4.833c0-.445.379-.806.846-.806h5.922v-4.866c-4.049-.318-7.424-2.9-8.728-6.412H4.23C1.894 11.422 0 9.62 0 7.395V2.56c0-.445.379-.805.846-.805h4.23V.95ZM23.69 8.2V1.756H6.768V8.2c0 4.448 3.787 8.055 8.46 8.055 4.672 0 8.46-3.607 8.46-8.056Zm1.692-4.833V9.81h.846c1.401 0 2.538-1.082 2.538-2.416V3.367H25.38Zm-23.689 0h3.384V9.81H4.23c-1.402 0-2.538-1.082-2.538-2.416V3.367ZM9.306 24.31v3.222H21.15v-3.222H9.306Z"/></symbol><symbol viewBox="0 0 35 22" id="primary--bills" xmlns="http://www.w3.org/2000/svg"><path fill-rule="evenodd" clip-rule="evenodd" d="M5.96 15.286v4.441c0 .944.765 1.709 1.709 1.709h25.623c.943 0 1.708-.765 1.708-1.709V6.062c0-.944-.765-1.708-1.708-1.708h-5.856v1.708h3.294a2.563 2.563 0 0 0 2.562 2.559v8.544a2.563 2.563 0 0 0-2.548 2.562H10.227a2.562 2.562 0 0 0-2.558-2.53v-1.911H5.96Z"/><path fill-rule="evenodd" clip-rule="evenodd" d="M14.52 10.25a1.708 1.708 0 1 0 0-3.417 1.708 1.708 0 0 0 0 3.417Zm0 1.708a3.416 3.416 0 1 0 0-6.833 3.416 3.416 0 0 0 0 6.833Z"/><path fill-rule="evenodd" clip-rule="evenodd" d="M1.708 0C.765 0 0 .765 0 1.708v13.666c0 .943.765 1.708 1.708 1.708h25.623c.944 0 1.708-.765 1.708-1.708V1.708C29.04.765 28.275 0 27.331 0H1.708Zm2.56 1.708H24.77a2.563 2.563 0 0 0 2.561 2.56v8.544a2.564 2.564 0 0 0-2.547 2.562H4.267a2.563 2.563 0 0 0-2.559-2.53V4.27a2.564 2.564 0 0 0 2.56-2.563Z"/></symbol><symbol viewBox="0 0 39 37" id="questions--cross" xmlns="http://www.w3.org/2000/svg"><path d="M36.214 14.536H23.68V2.643C23.679 1.183 22.43 0 20.893 0h-2.786c-1.538 0-2.786 1.183-2.786 2.643v11.893H2.786C1.247 14.536 0 15.719 0 17.179v2.642c0 1.46 1.247 2.643 2.786 2.643H15.32v11.893c0 1.46 1.248 2.643 2.786 2.643h2.786c1.538 0 2.786-1.184 2.786-2.643V22.464h12.535c1.538 0 2.786-1.183 2.786-2.643V17.18c0-1.46-1.248-2.643-2.786-2.643Z" fill-opacity=".56"/></symbol><symbol viewBox="0 0 39 37" id="spollers--Vectorcross" xmlns="http://www.w3.org/2000/svg"><path d="M36.214 14.536H23.68V2.643C23.679 1.183 22.43 0 20.893 0h-2.786c-1.538 0-2.786 1.183-2.786 2.643v11.893H2.786C1.247 14.536 0 15.719 0 17.179v2.642c0 1.46 1.247 2.643 2.786 2.643H15.32v11.893c0 1.46 1.248 2.643 2.786 2.643h2.786c1.538 0 2.786-1.184 2.786-2.643V22.464h12.535c1.538 0 2.786-1.183 2.786-2.643V17.18c0-1.46-1.248-2.643-2.786-2.643Z" fill-opacity=".56"/></symbol><symbol viewBox="0 0 16 10" id="spollers--arrow" xmlns="http://www.w3.org/2000/svg"><path d="M7.155 9.629.353 2.473a1.304 1.304 0 0 1 0-1.784C.823.195 1.202.075 1.667.57L8 7.093 14.333.208c.47-.495.85-.013 1.314.481.47.495.47 1.295 0 1.784L8.845 9.629c-.46.495-1.22.495-1.69 0Z"/></symbol><symbol viewBox="0 0 37 34" id="transplantation--heart" xmlns="http://www.w3.org/2000/svg"><path fill-rule="evenodd" clip-rule="evenodd" d="M6.528 4.92C5.166 6.751 4.34 9.254 4.34 11.868c0 1.516.247 2.967.681 4.349h8.107l3.162-5.94 1.976 7.307 2.418-3.285h6.056v1.973h-5.143l-4.116 5.59-1.757-6.499-1.505 2.826H.606v-1.972h2.46a16.383 16.383 0 0 1-.593-4.35c0-3.032.953-5.97 2.587-8.167C6.7 1.497 9.06 0 11.836 0c3.27 0 5.757 1.936 7.438 4.669C20.954 1.936 23.44 0 26.71 0c2.777 0 5.137 1.498 6.776 3.701 1.634 2.197 2.587 5.135 2.587 8.168 0 6.491-4.24 11.913-8.253 15.613a46.129 46.129 0 0 1-7.407 5.53 27.989 27.989 0 0 1-.662.382l-.037.02-.011.006-.003.002H19.7l-.426-.877-.406.889-.005-.003-.013-.007-.047-.024-.175-.093a28.25 28.25 0 0 1-.643-.358 40.887 40.887 0 0 1-2.234-1.383c-1.821-1.207-4.21-2.985-6.457-5.26-1.198-1.213-2.362-2.573-3.379-4.07a1.023 1.023 0 0 1 .214-1.377.902.902 0 0 1 1.303.226c.937 1.38 2.021 2.65 3.154 3.797 2.127 2.154 4.405 3.851 6.157 5.013a38.973 38.973 0 0 0 2.518 1.537 40.435 40.435 0 0 0 1.993-1.252 44.26 44.26 0 0 0 5.34-4.184c3.92-3.617 7.613-8.534 7.613-14.127 0-2.614-.825-5.117-2.188-6.95-1.358-1.826-3.213-2.947-5.308-2.947-2.896 0-5.142 1.993-6.6 5.13l-.837 1.804-.838-1.803c-1.458-3.138-3.704-5.13-6.6-5.13-2.095 0-3.95 1.12-5.308 2.946Zm12.746 27.625-.406.889.419.212.413-.224-.426-.877Z"/></symbol></svg>