<?xml version="1.0" encoding="utf-8"?><svg xmlns="http://www.w3.org/2000/svg" xmlns:xlink="http://www.w3.org/1999/xlink"><symbol fill="none" viewBox="0 0 34 34" id="footer--arrow-up" xmlns="http://www.w3.org/2000/svg"><circle cx="17" cy="17" r="15.5" stroke="#fff" stroke-width="3"/><path d="m10.482 17.743-.823-.824a.887.887 0 0 1 0-1.258l7.21-7.214a.887.887 0 0 1 1.258 0l7.21 7.21a.887.887 0 0 1 0 1.259l-.823.823a.892.892 0 0 1-1.273-.015l-4.257-4.467v10.665c0 .493-.397.89-.89.89h-1.188a.889.889 0 0 1-.89-.89V13.257l-4.26 4.471a.885.885 0 0 1-1.274.015Z" fill="#fff"/></symbol><symbol fill="none" viewBox="0 0 360 186" id="introduction--hairs" xmlns="http://www.w3.org/2000/svg"><path d="M76 162S44 153.5.5 143c0 0 35.05 5.95 49.5 8 14.45 2.05 26.5 2 26.5 2s-7.106.585-7.5 3c-.34 2.085 7 6 7 6Z" fill="#592F10"/><path d="m8 135 7.5 10.5 2.5.5-10-11ZM3 150.082l12.116-4.438 2.346.998L3 150.082ZM81.512 153.473c6.687 1.278 11.704 4.429 11.205 7.037-.498 2.608-6.324 3.685-13.011 2.406-6.688-1.279-11.704-4.429-11.206-7.037.499-2.608 6.324-3.685 13.012-2.406Z" fill="#592F10"/><ellipse cx="80.472" cy="158.122" rx="3.499" ry="8.974" transform="rotate(-79.174 80.472 158.122)" fill="#FCF7EC"/><path d="M86.659 128.579s-26.057-20.428-61.894-47.227c0 0 29.866 19.287 42.337 26.868 12.47 7.581 23.564 12.286 23.564 12.286s-6.76-2.264-8.075-.2c-1.134 1.781 4.068 8.273 4.068 8.273Z" fill="#592F10"/><path d="m34.812 76.957 2.753 12.607 2.1 1.445-4.853-14.052ZM24.27 88.846l12.885.698 1.763 1.842-14.648-2.54ZM95.086 122.916c5.641 3.812 9.009 8.685 7.523 10.885-1.486 2.2-7.265.893-12.906-2.919-5.642-3.811-9.01-8.685-7.523-10.885 1.486-2.2 7.264-.893 12.906 2.919Z" fill="#592F10"/><ellipse cx="92.296" cy="126.78" rx="3.499" ry="8.974" transform="rotate(-55.954 92.296 126.78)" fill="#FCF7EC"/><path d="M107.924 101.704S91.497 72.957 68.417 34.619c0 0 20.384 29.128 29.074 40.853 8.69 11.724 17.19 20.267 17.19 20.267s-5.407-4.647-7.403-3.232c-1.722 1.222.646 9.197.646 9.197Z" fill="#592F10"/><path d="M79.379 34.338 77.173 47.05l1.4 2.131.806-14.844ZM65.132 41.373l11.67 5.507.937 2.37-12.607-7.877ZM117.865 99.638c3.787 5.658 5.068 11.442 2.862 12.918-2.207 1.477-7.065-1.913-10.852-7.571-3.787-5.658-5.068-11.442-2.862-12.919 2.207-1.476 7.065 1.913 10.852 7.572Z" fill="#592F10"/><ellipse cx="113.825" cy="102.164" rx="3.499" ry="8.974" transform="rotate(-33.794 113.825 102.164)" fill="#FCF7EC"/><path d="M139.493 86.591s-6.75-32.414-16.87-76.004c0 0 10.398 33.997 15.045 47.832 4.646 13.835 10.094 24.584 10.094 24.584s-3.709-6.09-6.044-5.359c-2.016.63-2.225 8.947-2.225 8.947Z" fill="#592F10"/><path d="m133.137 13.704-6.022 11.412.674 2.459 5.348-13.87ZM117.414 15.997l9.4 8.84.16 2.545-9.56-11.385ZM149.587 87.694c1.855 6.551 1.288 12.448-1.266 13.172-2.555.723-6.13-4-7.985-10.552-1.855-6.55-1.289-12.447 1.266-13.17 2.554-.724 6.129 4 7.985 10.55Z" fill="#592F10"/><ellipse cx="144.964" cy="88.85" rx="3.499" ry="8.974" transform="rotate(-15.814 144.964 88.85)" fill="#FCF7EC"/><path d="M172.112 79.237s2.313-33.029 4.422-77.728c0 0 .767 35.544 1.478 50.12.711 14.577 3.033 26.402 3.033 26.402s-1.915-6.868-4.36-6.8c-2.111.06-4.573 8.006-4.573 8.006Z" fill="#592F10"/><path d="m185.804 7.365-8.897 9.346-.019 2.55 8.916-11.896ZM170.05 5.3l6.643 11.062-.537 2.492L170.05 5.3ZM181.526 83.041c.005 6.809-2.143 12.33-4.798 12.332-2.655.002-4.811-5.516-4.817-12.324-.005-6.809 2.143-12.33 4.798-12.332 2.656-.002 4.812 5.516 4.817 12.324Z" fill="#592F10"/><ellipse cx="176.763" cy="82.897" rx="3.499" ry="8.974" transform="rotate(-.044 176.763 82.897)" fill="#FCF7EC"/><path d="M208.602 83.248s12.743-30.56 29.021-72.243c0 0-10.628 33.926-14.611 47.966-3.982 14.04-5.56 25.988-5.56 25.988s.38-7.12-1.96-7.837c-2.019-.618-6.89 6.126-6.89 6.126Z" fill="#592F10"/><path d="M244.537 19.517 233.12 25.53l-.833 2.41 12.25-8.423ZM230.268 12.525l2.761 12.605-1.305 2.19-1.456-14.795ZM216.307 89.86c-2.17 6.454-5.969 11-8.486 10.153-2.516-.846-2.797-6.763-.627-13.217 2.17-6.453 5.969-10.999 8.486-10.152 2.517.846 2.797 6.763.627 13.217Z" fill="#592F10"/><ellipse cx="211.84" cy="88.202" rx="3.499" ry="8.974" transform="rotate(18.586 211.84 88.202)" fill="#FCF7EC"/><path d="M240.922 96.627s20.601-25.921 47.638-61.58c0 0-19.485 29.738-27.149 42.158-7.663 12.42-12.442 23.483-12.442 23.483s2.309-6.746.254-8.074c-1.774-1.146-8.301 4.013-8.301 4.013Z" fill="#592F10"/><path d="m292.888 45.124-12.625 2.67-1.459 2.09 14.084-4.76ZM281.069 34.504l-.784 12.88-1.854 1.75 2.638-14.63ZM246.53 105.092c-3.849 5.616-8.745 8.952-10.935 7.451-2.19-1.502-.845-7.271 3.004-12.887 3.849-5.616 8.745-8.952 10.935-7.45 2.19 1.5.845 7.27-3.004 12.886Z" fill="#592F10"/><ellipse cx="242.685" cy="102.277" rx="3.499" ry="8.974" transform="rotate(34.426 242.685 102.277)" fill="#FCF7EC"/><path d="M265.102 121.263s29.01-15.958 67.717-38.413c0 0-29.454 19.909-41.319 28.407-11.864 8.499-20.543 16.859-20.543 16.859s4.734-5.332 3.351-7.35c-1.194-1.742-9.206.497-9.206.497Z" fill="#592F10"/><path d="m332.922 93.815-12.676-2.411-2.153 1.365 14.829 1.046ZM326.119 79.456l-5.695 11.578-2.386.9 8.081-12.478ZM267.007 131.236c-5.719 3.695-11.523 4.882-12.964 2.652-1.441-2.23 2.027-7.033 7.746-10.728 5.719-3.694 11.523-4.881 12.964-2.651 1.441 2.23-2.027 7.033-7.746 10.727Z" fill="#592F10"/><ellipse cx="264.547" cy="127.156" rx="3.499" ry="8.974" transform="rotate(57.136 264.547 127.156)" fill="#FCF7EC"/><path d="M278.954 153.467s32.842-4.203 77.088-10.895c0 0-34.705 7.717-48.859 11.271-14.155 3.554-25.296 8.148-25.296 8.148s6.36-3.224 5.813-5.609c-.471-2.058-8.746-2.915-8.746-2.915Z" fill="#592F10"/><path d="m352.115 152.811-10.908-6.894-2.504.48 13.412 6.414ZM351.054 136.957l-9.546 8.682-2.549-.038 12.095-8.644ZM277.068 163.444c-6.676 1.339-12.511.314-13.033-2.289-.522-2.603 4.466-5.799 11.141-7.138 6.676-1.34 12.511-.315 13.033 2.288.522 2.603-4.466 5.799-11.141 7.139Z" fill="#592F10"/><ellipse cx="276.276" cy="158.745" rx="3.499" ry="8.974" transform="rotate(78.656 276.276 158.745)" fill="#FCF7EC"/></symbol><symbol fill="none" viewBox="0 0 1243 54" id="introduction--statistic" xmlns="http://www.w3.org/2000/svg"><rect y="37.393" width="1243" height="16" rx="8" fill="#FFA4A4"/><rect y="37.393" width="930.344" height="16" rx="8" fill="#4D5FFF"/><path fill-rule="evenodd" clip-rule="evenodd" d="m28.264 10.11-1.88 5.56a1.224 1.224 0 1 1-2.32-.784L26.294 8.3a1.923 1.923 0 0 1 1.822-1.307h7.036c.813 0 1.539.512 1.811 1.278l2.35 6.6a1.224 1.224 0 1 1-2.305.82l-1.888-5.3V26.82c0 .634-.529 1.153-1.175 1.153a1.167 1.167 0 0 1-1.174-1.153v-8.214h-2.156v8.214c0 .634-.529 1.153-1.175 1.153a1.167 1.167 0 0 1-1.175-1.153V10.11Z" fill="#4D5FFF"/><path d="M34.49 2.799a2.798 2.798 0 1 1-5.596 0 2.798 2.798 0 0 1 5.596 0Z" fill="#4D5FFF"/><path fill-rule="evenodd" clip-rule="evenodd" d="m50.042 10.11-1.881 5.56a1.224 1.224 0 1 1-2.319-.784L48.07 8.3a1.923 1.923 0 0 1 1.822-1.307h7.036c.814 0 1.54.512 1.812 1.278l2.35 6.6a1.224 1.224 0 1 1-2.306.82l-1.887-5.3V26.82c0 .634-.529 1.153-1.175 1.153a1.167 1.167 0 0 1-1.175-1.153v-8.214h-2.156v8.214c0 .634-.528 1.153-1.174 1.153a1.167 1.167 0 0 1-1.175-1.153V10.11Z" fill="#4D5FFF"/><path d="M56.268 2.799a2.798 2.798 0 1 1-5.596 0 2.798 2.798 0 0 1 5.596 0Z" fill="#4D5FFF"/><path fill-rule="evenodd" clip-rule="evenodd" d="m71.82 10.11-1.881 5.56a1.224 1.224 0 0 1-2.319-.784L69.848 8.3a1.923 1.923 0 0 1 1.822-1.307h7.036c.814 0 1.54.512 1.812 1.278l2.35 6.6a1.224 1.224 0 1 1-2.306.82l-1.888-5.3V26.82c0 .634-.528 1.153-1.174 1.153a1.167 1.167 0 0 1-1.175-1.153v-8.214H74.17v8.214c0 .634-.529 1.153-1.175 1.153a1.167 1.167 0 0 1-1.174-1.153V10.11Z" fill="#4D5FFF"/><path d="M78.046 2.799a2.798 2.798 0 1 1-5.596 0 2.798 2.798 0 0 1 5.596 0Z" fill="#4D5FFF"/><path fill-rule="evenodd" clip-rule="evenodd" d="m93.597 10.11-1.88 5.56a1.224 1.224 0 0 1-2.319-.784L91.626 8.3a1.923 1.923 0 0 1 1.822-1.307h7.036c.813 0 1.539.512 1.812 1.278l2.35 6.6a1.224 1.224 0 0 1-2.306.82l-1.888-5.3V26.82c0 .634-.528 1.153-1.174 1.153a1.167 1.167 0 0 1-1.175-1.153v-8.214h-2.156v8.214c0 .634-.529 1.153-1.175 1.153a1.167 1.167 0 0 1-1.175-1.153V10.11Z" fill="#D6D6D6"/><path d="M99.823 2.799a2.798 2.798 0 1 1-5.596 0 2.798 2.798 0 0 1 5.596 0Z" fill="#D6D6D6"/><path fill-rule="evenodd" clip-rule="evenodd" d="m1141.42 16.072 1.89-4.74v4.027l-2.48 6.195c-.19.472.16.985.67.985h1.88v5.209c0 .689.54 1.252 1.2 1.252.67 0 1.21-.563 1.21-1.252v-5.21h2.21v5.21c0 .689.55 1.252 1.21 1.252.66 0 1.21-.563 1.21-1.252v-5.21h1.88c.51 0 .85-.512.67-.984l-2.48-6.195v-3.83l1.89 4.4a1.26 1.26 0 0 0 1.65.657c.64-.275.94-1.014.66-1.651l-2.39-5.562a1.99 1.99 0 0 0-1.82-1.193h-7.28c-.81 0-1.54.493-1.84 1.245l-2.27 5.72c-.26.644.06 1.375.7 1.63a1.25 1.25 0 0 0 1.63-.703Z" fill="#FFA4A4"/><path d="M1149.77 3.873a2.875 2.875 0 0 1-2.87 2.873 2.868 2.868 0 0 1-2.87-2.873A2.868 2.868 0 0 1 1146.9 1c1.58 0 2.87 1.286 2.87 2.873Z" fill="#FFA4A4"/><path fill-rule="evenodd" clip-rule="evenodd" d="m1163.2 16.072 1.89-4.74v4.027l-2.48 6.195c-.19.472.16.985.66.985h1.89v5.209c0 .689.54 1.252 1.2 1.252.67 0 1.21-.563 1.21-1.252v-5.21h2.21v5.21c0 .689.54 1.252 1.21 1.252.66 0 1.2-.563 1.2-1.252v-5.21h1.89c.5 0 .85-.512.66-.984l-2.47-6.195v-3.83l1.89 4.4a1.256 1.256 0 0 0 2.31-.994l-2.4-5.562a1.966 1.966 0 0 0-1.81-1.193h-7.29c-.8 0-1.53.493-1.83 1.245l-2.27 5.72c-.26.644.06 1.375.7 1.63a1.25 1.25 0 0 0 1.63-.703Z" fill="#D6D6D6"/><path d="M1171.55 3.873a2.875 2.875 0 0 1-5.75 0 2.875 2.875 0 0 1 5.75 0Z" fill="#D6D6D6"/><path fill-rule="evenodd" clip-rule="evenodd" d="m1184.98 16.072 1.88-4.74v4.027l-2.47 6.195c-.19.472.15.985.66.985h1.88v5.209c0 .689.55 1.252 1.21 1.252.66 0 1.21-.563 1.21-1.252v-5.21h2.21v5.21c0 .689.54 1.252 1.2 1.252.67 0 1.21-.563 1.21-1.252v-5.21h1.88c.51 0 .86-.512.67-.984l-2.48-6.195v-3.83l1.9 4.4c.27.637 1.01.931 1.65.657a1.26 1.26 0 0 0 .66-1.651l-2.4-5.562a1.966 1.966 0 0 0-1.81-1.193h-7.29c-.81 0-1.53.493-1.83 1.245l-2.28 5.72a1.258 1.258 0 0 0 2.34.928Z" fill="#D6D6D6"/><path d="M1193.33 3.873a2.875 2.875 0 0 1-5.75 0 2.875 2.875 0 0 1 5.75 0Z" fill="#D6D6D6"/><path fill-rule="evenodd" clip-rule="evenodd" d="m1206.76 16.072 1.88-4.74v4.027l-2.48 6.195c-.19.472.16.985.67.985h1.88v5.209c0 .689.54 1.252 1.21 1.252.66 0 1.2-.563 1.2-1.252v-5.21h2.22v5.21c0 .689.54 1.252 1.2 1.252.67 0 1.21-.563 1.21-1.252v-5.21h1.88c.51 0 .86-.512.67-.984l-2.48-6.195v-3.83l1.9 4.4a1.253 1.253 0 1 0 2.3-.994l-2.39-5.562a1.977 1.977 0 0 0-1.81-1.193h-7.29c-.81 0-1.54.493-1.84 1.245l-2.27 5.72a1.258 1.258 0 0 0 2.34.928Z" fill="#D6D6D6"/><path d="M1215.1 3.873a2.868 2.868 0 0 1-2.87 2.873 2.868 2.868 0 0 1-2.87-2.873A2.868 2.868 0 0 1 1212.23 1c1.59 0 2.87 1.286 2.87 2.873Z" fill="#D6D6D6"/></symbol></svg>